<svg xmlns="http://www.w3.org/2000/svg" viewBox="0 0 100 100">
  <!-- Beaver tail -->
  <ellipse cx="20" cy="70" rx="12" ry="18" fill="#8B4513" transform="rotate(-30 20 70)"/>
  <path d="M 18 65 L 22 65 L 24 75 L 20 75 L 16 75 Z" fill="#654321"/>

  <!-- Beaver body -->
  <ellipse cx="50" cy="55" rx="25" ry="28" fill="#A0522D"/>

  <!-- Beaver head -->
  <circle cx="50" cy="35" r="20" fill="#CD853F"/>

  <!-- Ears -->
  <ellipse cx="38" cy="22" rx="6" ry="8" fill="#8B4513"/>
  <ellipse cx="62" cy="22" rx="6" ry="8" fill="#8B4513"/>

  <!-- Eyes -->
  <circle cx="43" cy="32" r="3" fill="#000"/>
  <circle cx="57" cy="32" r="3" fill="#000"/>
  <circle cx="44" cy="31" r="1.5" fill="#fff"/>
  <circle cx="58" cy="31" r="1.5" fill="#fff"/>

  <!-- Nose -->
  <circle cx="50" cy="40" r="3" fill="#654321"/>

  <!-- Front teeth -->
  <rect x="47" y="43" width="3" height="5" fill="#FFF" rx="0.5"/>
  <rect x="50" y="43" width="3" height="5" fill="#FFF" rx="0.5"/>

  <!-- Whiskers -->
  <line x1="35" y1="38" x2="25" y2="37" stroke="#654321" stroke-width="1"/>
  <line x1="35" y1="40" x2="25" y2="41" stroke="#654321" stroke-width="1"/>
  <line x1="65" y1="38" x2="75" y2="37" stroke="#654321" stroke-width="1"/>
  <line x1="65" y1="40" x2="75" y2="41" stroke="#654321" stroke-width="1"/>

  <!-- Arms -->
  <ellipse cx="32" cy="60" rx="8" ry="12" fill="#A0522D" transform="rotate(-20 32 60)"/>
  <ellipse cx="68" cy="60" rx="8" ry="12" fill="#A0522D" transform="rotate(20 68 60)"/>

  <!-- Stick in paws (beaver holding a stick!) -->
  <rect x="28" y="68" width="44" height="3" fill="#8B4513" rx="1"/>
</svg>
